<?xml version="1.0" encoding="UTF-8"?>
<svg width="1024px" height="1024px" viewBox="0 0 1024 1024" version="1.1" xmlns="http://www.w3.org/2000/svg" xmlns:xlink="http://www.w3.org/1999/xlink">
    <!-- Generator: Sketch 60.1 (88133) - https://sketch.com -->
    <title>编组</title>
    <desc>Created with Sketch.</desc>
    <defs>
        <linearGradient x1="6.51527934%" y1="1.3283488%" x2="93.3944188%" y2="97.0533526%" id="linearGradient-1">
            <stop stop-color="#FF1579" offset="0%"></stop>
            <stop stop-color="#FF770B" offset="100%"></stop>
        </linearGradient>
        <linearGradient x1="46.5795002%" y1="130.22099%" x2="52.266136%" y2="-18.9461452%" id="linearGradient-2">
            <stop stop-color="#FFFFFF" stop-opacity="0.461210664" offset="0%"></stop>
            <stop stop-color="#FFFFFF" offset="100%"></stop>
        </linearGradient>
        <linearGradient x1="50%" y1="125.706559%" x2="50%" y2="-47.9449829%" id="linearGradient-3">
            <stop stop-color="#FFFFFF" stop-opacity="0.525513549" offset="0%"></stop>
            <stop stop-color="#FFFFFF" offset="100%"></stop>
        </linearGradient>
        <linearGradient x1="50%" y1="168.208064%" x2="50%" y2="-21.4900887%" id="linearGradient-4">
            <stop stop-color="#FFFFFF" offset="0%"></stop>
            <stop stop-color="#FFFFFF" offset="18.1753639%"></stop>
            <stop stop-color="#FFFFFF" offset="100%"></stop>
        </linearGradient>
    </defs>
    <g id="页面-1" stroke="none" stroke-width="1" fill="none" fill-rule="evenodd">
        <g id="编组" fill-rule="nonzero">
            <path d="M216.416,0 C96.864,0 0,96.864 0,216.384 L0,216.384 L0,807.584 C0,927.136 96.864,1024 216.416,1024 L216.416,1024 L807.616,1024 C927.136,1024 1024,927.136 1024,807.584 L1024,807.584 L1024,216.384 C1024,96.864 927.136,0 807.616,0 L807.616,0 L216.416,0 Z" id="Fill-1备份-2" fill="url(#linearGradient-1)"></path>
            <path d="M216.416,0 C96.864,0 0,96.864 0,216.384 L0,216.384 L0,807.584 C0,927.136 96.864,1024 216.416,1024 L216.416,1024 L807.616,1024 C927.136,1024 1024,927.136 1024,807.584 L1024,807.584 L1024,216.384 C1024,96.864 927.136,0 807.616,0 L807.616,0 L216.416,0 Z" id="Fill-1备份-2" fill="url(#linearGradient-1)"></path>
            <g id="编组-6备份" transform="translate(184.000000, 184.000000)">
                <rect id="矩形" fill="#FFFFFF" transform="translate(269.663691, 168.547421) rotate(45.000000) translate(-269.663691, -168.547421) " x="237.663691" y="117.047421" width="64" height="103" rx="32"></rect>
                <rect id="矩形备份-10" fill="#FFFFFF" transform="translate(218.044896, 324.818019) rotate(45.000000) translate(-218.044896, -324.818019) " x="186.044896" y="273.318019" width="64" height="103" rx="32"></rect>
                <rect id="矩形备份-12" fill="#FFFFFF" transform="translate(168.547421, 478.967298) rotate(45.000000) translate(-168.547421, -478.967298) " x="136.547421" y="427.467298" width="64" height="103" rx="32"></rect>
                <rect id="矩形备份-11" fill="#FFFFFF" transform="translate(324.818019, 431.591143) rotate(45.000000) translate(-324.818019, -431.591143) " x="292.818019" y="380.091143" width="64" height="103" rx="32"></rect>
                <rect id="矩形备份-8" fill="#FFFFFF" transform="translate(375.729708, 274.613438) rotate(45.000000) translate(-375.729708, -274.613438) " x="343.729708" y="223.113438" width="64" height="103" rx="32"></rect>
                <rect id="矩形备份-9" fill="#FFFFFF" transform="translate(481.795725, 380.679455) rotate(45.000000) translate(-481.795725, -380.679455) " x="449.795725" y="329.179455" width="64" height="103" rx="32"></rect>
                <rect id="矩形" fill="url(#linearGradient-2)" x="483.08035" y="27" width="66" height="148" rx="33"></rect>
                <rect id="矩形备份-6" fill="url(#linearGradient-3)" transform="translate(565.375618, 152.569810) rotate(90.000000) translate(-565.375618, -152.569810) " x="532.375618" y="78.56981" width="66" height="148" rx="33"></rect>
                <rect id="矩形备份-5" fill="url(#linearGradient-4)" transform="translate(549.969730, 116.440498) rotate(45.000000) translate(-549.969730, -116.440498) " x="516.96973" y="42.4404981" width="66" height="148" rx="33"></rect>
                <path d="M259.722237,656 C235.172299,656 211.664421,653.669743 189.354501,649.009228 C140.623858,638.818455 100.172256,617.919986 69.1320104,586.871769 C38.0917646,555.831757 17.1849324,515.38046 6.99408252,466.650185 C-2.13009228,423.007092 -2.32701691,374.736305 6.40330861,323.167055 C14.5182447,275.257293 30.3542675,226.297275 52.1964917,181.587514 C74.2602561,136.434677 102.075861,96.4100463 132.648411,65.8377271 C163.590194,34.896177 196.468403,14.6295027 230.355851,5.5956532 C262.126359,-2.87204229 295.660983,-1.72332391 330.040743,9.00078268 C360.211238,18.4120683 391.185842,34.9618181 424.736877,59.6018273 C452.560687,80.0326042 482.42759,106.31364 516.060677,139.938268 C549.693764,173.562896 575.966792,203.437779 596.397723,231.261379 C621.037918,264.812161 637.587793,295.786531 646.999149,325.956799 C657.723337,360.336299 658.872064,393.870671 650.404305,425.640939 C641.370387,459.536336 621.10356,492.406092 590.161776,523.347642 C559.597432,553.911757 519.5725,581.735357 474.411116,603.798955 C429.701019,625.649219 380.740631,641.485123 332.830508,649.591792 C307.624155,653.866666 283.197295,656 259.722237,656 Z M273.416705,38.145409 C262.142769,38.145409 251.106784,39.6059224 240.193877,42.5105389 C212.878789,49.7884903 185.785242,66.7238813 159.659907,92.8490193 C132.041226,120.467491 106.752821,156.947505 86.5188147,198.350597 C66.2519876,239.819331 51.572897,285.185502 44.0651452,329.534236 C36.2455962,375.712715 36.3604689,420.414271 44.3851478,458.82249 C53.0252162,500.159941 70.4366361,534.145595 96.1435063,559.844066 C121.842171,585.542538 155.836287,602.953826 197.165845,611.602035 C235.566149,619.626653 280.276246,619.741525 326.455073,611.922035 C370.804142,604.41434 416.170655,589.73536 457.639702,569.468685 C499.043106,549.234832 535.523395,523.946617 563.142075,496.328145 C589.26741,470.203007 606.202929,443.109664 613.480935,415.794782 C620.151757,390.760926 619.183545,365.095275 610.518861,337.329111 C595.388484,288.84499 556.791256,234.699329 489.032771,166.94956 C421.282491,99.1997909 367.136421,60.5946482 318.651935,45.4643861 C303.004631,40.582333 288.005538,38.145409 273.416705,38.145409 Z" id="形状" stroke="#FFFFFF" stroke-width="16" fill="#FFFFFF"></path>
            </g>
        </g>
    </g>
</svg>